<svg width="124" height="38" viewBox="0 0 124 38" fill="none" xmlns="http://www.w3.org/2000/svg">
<path d="M46.5374 24.0591C46.4913 22.5767 45.6602 21.048 43.9058 20.1678C42.0129 19.2413 40.2124 19.4266 38.5503 20.6774C35.2724 23.2253 31.9945 25.8195 28.7166 28.4138C27.6085 29.294 26.5005 30.1742 25.3925 31.008C22.9917 32.8611 20.2678 33.417 17.3592 32.4905C14.1274 31.425 12.4192 29.1087 11.819 25.7732C11.1727 22.1135 12.6039 19.2413 15.5587 17.3419C19.6214 14.794 24.8846 16.1837 27.2853 20.1678C27.5624 20.631 27.7009 20.8627 27.7009 20.8627L26.5928 21.6039L24.9769 22.7157C24.9769 22.7157 24.2844 21.7429 23.8689 21.2796C22.1145 19.2876 19.1136 18.9633 17.0822 20.5847C14.9585 22.2524 14.543 25.2636 16.1588 27.4409C17.7747 29.5719 20.7756 30.0815 22.9917 28.4601C25.4386 26.6534 27.747 24.754 30.1016 22.901C32.2253 21.2333 34.2567 19.5655 36.4266 17.9441C41.6898 13.9601 48.892 16.925 49.9077 23.4569C50.5079 27.2093 48.1071 31.147 44.4137 32.3978C40.7664 33.7413 36.4728 32.2588 34.5337 29.016C34.2106 28.4601 34.0259 28.1822 34.0259 28.1822L35.2724 27.3946L36.8421 26.3754C36.8421 26.3754 37.4885 27.2556 37.8578 27.6726C39.1044 29.2476 41.3666 29.8499 43.2595 29.2013C45.2909 28.4601 46.5374 26.6997 46.5374 24.0591Z" fill="#F9D43B"/>
<path d="M23.7766 13.5895L33.1025 4H43.5365V12.6629H40.1662V7.28914H35.3647L27.1007 15.0719L23.7766 13.5895Z" fill="#F9D43B"/>
<path d="M6.55586 14.2844H10.0185C10.0185 14.2844 10.0185 28.2748 4.29363 32.9538H0C5.6325 28.0432 6.55586 14.2844 6.55586 14.2844Z" fill="#F9D43B"/>
<path d="M81.6691 28.944C81.7331 29.0293 81.7651 29.1467 81.7651 29.296C81.7651 29.488 81.6905 29.6587 81.5411 29.808C81.4131 29.936 81.2531 30 81.0611 30H75.9731C75.6958 30 75.4611 29.9467 75.2691 29.84C75.0771 29.712 74.8745 29.52 74.6611 29.264L68.6131 21.648V29.136C68.6131 29.3707 68.5278 29.5733 68.3571 29.744C68.1865 29.9147 67.9838 30 67.7491 30H63.5571C63.3225 30 63.1198 29.9147 62.9491 29.744C62.7785 29.5733 62.6931 29.3707 62.6931 29.136V8.464C62.6931 8.22933 62.7785 8.02667 62.9491 7.856C63.1198 7.68533 63.3225 7.6 63.5571 7.6H67.7491C67.9838 7.6 68.1865 7.68533 68.3571 7.856C68.5278 8.02667 68.6131 8.22933 68.6131 8.464V15.216L74.2451 8.304C74.4158 8.09067 74.5865 7.92 74.7571 7.792C74.9278 7.664 75.1838 7.6 75.5251 7.6H80.5171C80.7091 7.6 80.8691 7.67467 80.9971 7.824C81.1465 7.952 81.2211 8.112 81.2211 8.304C81.2211 8.432 81.1891 8.54933 81.1251 8.656L73.2211 18.32L81.6691 28.944ZM100.672 7.6C100.907 7.6 101.11 7.68533 101.28 7.856C101.451 8.02667 101.536 8.22933 101.536 8.464V11.856C101.536 12.0907 101.451 12.2933 101.28 12.464C101.11 12.6347 100.907 12.72 100.672 12.72H95.0404V29.136C95.0404 29.3707 94.955 29.5733 94.7844 29.744C94.6137 29.9147 94.411 30 94.1764 30H89.9844C89.7497 30 89.547 29.9147 89.3764 29.744C89.2057 29.5733 89.1204 29.3707 89.1204 29.136V12.72H83.4884C83.2537 12.72 83.051 12.6347 82.8804 12.464C82.7097 12.2933 82.6244 12.0907 82.6244 11.856V8.464C82.6244 8.22933 82.7097 8.02667 82.8804 7.856C83.051 7.68533 83.2537 7.6 83.4884 7.6H100.672ZM121.436 24.88C121.671 24.88 121.873 24.9653 122.044 25.136C122.215 25.3067 122.3 25.5093 122.3 25.744V29.136C122.3 29.3707 122.215 29.5733 122.044 29.744C121.873 29.9147 121.671 30 121.436 30H104.284C104.049 30 103.847 29.9147 103.676 29.744C103.505 29.5733 103.42 29.3707 103.42 29.136V25.904C103.42 25.648 103.463 25.4453 103.548 25.296C103.633 25.1467 103.751 24.976 103.9 24.784L114.14 12.72H104.604C104.369 12.72 104.167 12.6347 103.996 12.464C103.825 12.2933 103.74 12.0907 103.74 11.856V8.464C103.74 8.22933 103.825 8.02667 103.996 7.856C104.167 7.68533 104.369 7.6 104.604 7.6H121.116C121.351 7.6 121.553 7.68533 121.724 7.856C121.895 8.02667 121.98 8.22933 121.98 8.464V11.696C121.98 12.1013 121.841 12.4533 121.564 12.752L111.324 24.88H121.436Z" fill="white"/>
</svg>
